<mxfile host="Electron" agent="Mozilla/5.0 (Windows NT 10.0; Win64; x64) AppleWebKit/537.36 (KHTML, like Gecko) draw.io/24.7.17 Chrome/128.0.6613.36 Electron/32.0.1 Safari/537.36" version="24.7.17">
  <diagram id="C5RBs43oDa-KdzZeNtuy" name="Page-1">
    <mxGraphModel dx="1147" dy="669" grid="1" gridSize="10" guides="1" tooltips="1" connect="1" arrows="1" fold="1" page="1" pageScale="1" pageWidth="827" pageHeight="1169" math="0" shadow="0">
      <root>
        <mxCell id="WIyWlLk6GJQsqaUBKTNV-0" />
        <mxCell id="WIyWlLk6GJQsqaUBKTNV-1" parent="WIyWlLk6GJQsqaUBKTNV-0" />
        <mxCell id="wOFYEOkOtfAxg9CZ5leM-5" value="" style="rounded=0;whiteSpace=wrap;html=1;movable=0;resizable=0;rotatable=0;deletable=0;editable=0;locked=1;connectable=0;" parent="WIyWlLk6GJQsqaUBKTNV-1" vertex="1">
          <mxGeometry x="50" y="90" width="760" height="1090" as="geometry" />
        </mxCell>
        <mxCell id="wOFYEOkOtfAxg9CZ5leM-19" style="edgeStyle=orthogonalEdgeStyle;rounded=0;orthogonalLoop=1;jettySize=auto;html=1;entryX=0.833;entryY=1.05;entryDx=0;entryDy=0;exitX=0.75;exitY=0;exitDx=0;exitDy=0;entryPerimeter=0;" parent="WIyWlLk6GJQsqaUBKTNV-1" source="wOFYEOkOtfAxg9CZ5leM-1" target="wOFYEOkOtfAxg9CZ5leM-12" edge="1">
          <mxGeometry relative="1" as="geometry">
            <Array as="points">
              <mxPoint x="260" y="520" />
            </Array>
          </mxGeometry>
        </mxCell>
        <mxCell id="wOFYEOkOtfAxg9CZ5leM-20" value="fileList 상태 전달" style="edgeLabel;html=1;align=center;verticalAlign=middle;resizable=0;points=[];" parent="wOFYEOkOtfAxg9CZ5leM-19" vertex="1" connectable="0">
          <mxGeometry x="0.0762" y="1" relative="1" as="geometry">
            <mxPoint as="offset" />
          </mxGeometry>
        </mxCell>
        <mxCell id="wOFYEOkOtfAxg9CZ5leM-6" value="form" style="rounded=0;whiteSpace=wrap;html=1;" parent="WIyWlLk6GJQsqaUBKTNV-1" vertex="1">
          <mxGeometry x="40" y="80" width="120" height="60" as="geometry" />
        </mxCell>
        <mxCell id="wOFYEOkOtfAxg9CZ5leM-13" style="edgeStyle=orthogonalEdgeStyle;rounded=0;orthogonalLoop=1;jettySize=auto;html=1;exitX=0.133;exitY=0.983;exitDx=0;exitDy=0;exitPerimeter=0;entryX=0.188;entryY=0.022;entryDx=0;entryDy=0;entryPerimeter=0;" parent="WIyWlLk6GJQsqaUBKTNV-1" source="wOFYEOkOtfAxg9CZ5leM-12" edge="1" target="wOFYEOkOtfAxg9CZ5leM-1">
          <mxGeometry relative="1" as="geometry">
            <mxPoint x="176" y="290" as="targetPoint" />
          </mxGeometry>
        </mxCell>
        <mxCell id="wOFYEOkOtfAxg9CZ5leM-18" value="props로 주입" style="edgeLabel;html=1;align=center;verticalAlign=middle;resizable=0;points=[];" parent="wOFYEOkOtfAxg9CZ5leM-13" vertex="1" connectable="0">
          <mxGeometry x="0.1302" y="1" relative="1" as="geometry">
            <mxPoint y="-1" as="offset" />
          </mxGeometry>
        </mxCell>
        <mxCell id="wOFYEOkOtfAxg9CZ5leM-15" style="edgeStyle=orthogonalEdgeStyle;rounded=0;orthogonalLoop=1;jettySize=auto;html=1;entryX=0;entryY=0.5;entryDx=0;entryDy=0;" parent="WIyWlLk6GJQsqaUBKTNV-1" source="wOFYEOkOtfAxg9CZ5leM-12" target="wOFYEOkOtfAxg9CZ5leM-14" edge="1">
          <mxGeometry relative="1" as="geometry">
            <Array as="points">
              <mxPoint x="340" y="180" />
              <mxPoint x="340" y="180" />
            </Array>
          </mxGeometry>
        </mxCell>
        <mxCell id="wOFYEOkOtfAxg9CZ5leM-16" value="참조" style="edgeLabel;html=1;align=center;verticalAlign=middle;resizable=0;points=[];" parent="wOFYEOkOtfAxg9CZ5leM-15" vertex="1" connectable="0">
          <mxGeometry x="0.0167" y="2" relative="1" as="geometry">
            <mxPoint as="offset" />
          </mxGeometry>
        </mxCell>
        <mxCell id="wOFYEOkOtfAxg9CZ5leM-12" value="useFileForm()&lt;br&gt;filelist 상태 데이터&lt;br&gt;(ref)" style="rounded=0;whiteSpace=wrap;html=1;" parent="WIyWlLk6GJQsqaUBKTNV-1" vertex="1">
          <mxGeometry x="160" y="150" width="120" height="60" as="geometry" />
        </mxCell>
        <mxCell id="wOFYEOkOtfAxg9CZ5leM-14" value="&lt;b&gt;submitHandler&lt;br&gt;validFileForm()&lt;/b&gt;" style="rounded=0;whiteSpace=wrap;html=1;" parent="WIyWlLk6GJQsqaUBKTNV-1" vertex="1">
          <mxGeometry x="400" y="150" width="120" height="60" as="geometry" />
        </mxCell>
        <mxCell id="wOFYEOkOtfAxg9CZ5leM-34" value="&lt;b style=&quot;font-size: 15px;&quot;&gt;util 함수&lt;br&gt;&lt;/b&gt;파일 확장자 검사&lt;div&gt;바이트 검사...&lt;/div&gt;" style="rounded=0;whiteSpace=wrap;html=1;" parent="WIyWlLk6GJQsqaUBKTNV-1" vertex="1">
          <mxGeometry x="650" y="110" width="150" height="100" as="geometry" />
        </mxCell>
        <mxCell id="uEcM1vriw_kn_yyQPSbz-8" style="edgeStyle=orthogonalEdgeStyle;rounded=0;orthogonalLoop=1;jettySize=auto;html=1;exitX=0;exitY=0.75;exitDx=0;exitDy=0;entryX=1;entryY=0.75;entryDx=0;entryDy=0;" edge="1" parent="WIyWlLk6GJQsqaUBKTNV-1" source="Gj9TyMR_6e9XWFYzYyro-5" target="wOFYEOkOtfAxg9CZ5leM-1">
          <mxGeometry relative="1" as="geometry" />
        </mxCell>
        <mxCell id="uEcM1vriw_kn_yyQPSbz-9" value="dispather로 wrapper의 state 변경" style="edgeLabel;html=1;align=center;verticalAlign=middle;resizable=0;points=[];" vertex="1" connectable="0" parent="uEcM1vriw_kn_yyQPSbz-8">
          <mxGeometry x="-0.6952" y="-2" relative="1" as="geometry">
            <mxPoint y="87" as="offset" />
          </mxGeometry>
        </mxCell>
        <mxCell id="Gj9TyMR_6e9XWFYzYyro-5" value="useController()&lt;div&gt;wrapper의 상태를 구독.&lt;/div&gt;&lt;div&gt;리 렌더링 야기&lt;/div&gt;" style="rounded=0;whiteSpace=wrap;html=1;" parent="WIyWlLk6GJQsqaUBKTNV-1" vertex="1">
          <mxGeometry x="470" y="310" width="150" height="100" as="geometry" />
        </mxCell>
        <mxCell id="uEcM1vriw_kn_yyQPSbz-3" value="" style="group" vertex="1" connectable="0" parent="WIyWlLk6GJQsqaUBKTNV-1">
          <mxGeometry x="145" y="520" width="520" height="540" as="geometry" />
        </mxCell>
        <mxCell id="wOFYEOkOtfAxg9CZ5leM-0" value="" style="rounded=0;whiteSpace=wrap;html=1;fillColor=none;" parent="uEcM1vriw_kn_yyQPSbz-3" vertex="1">
          <mxGeometry x="10" y="20" width="460" height="520" as="geometry" />
        </mxCell>
        <mxCell id="WIyWlLk6GJQsqaUBKTNV-3" value="&lt;font style=&quot;&quot;&gt;&lt;font style=&quot;font-weight: bold; font-size: 20px;&quot;&gt;uploader&lt;/font&gt;&lt;br&gt;파일 인풋&lt;br&gt;폴더 인풋&lt;br&gt;파일 드롭존&lt;/font&gt;" style="rounded=1;whiteSpace=wrap;html=1;fontSize=12;glass=0;strokeWidth=1;shadow=0;" parent="uEcM1vriw_kn_yyQPSbz-3" vertex="1">
          <mxGeometry x="380" y="50" width="120" height="100" as="geometry" />
        </mxCell>
        <mxCell id="WIyWlLk6GJQsqaUBKTNV-7" value="&lt;b&gt;&lt;font style=&quot;font-size: 20px;&quot;&gt;controller&lt;/font&gt;&lt;/b&gt;&lt;div&gt;파일리스트 개수,&lt;br&gt;각 파일 정보&lt;br&gt;(이름, 타입, 용량)&lt;br&gt;파일 삭제 함수&lt;/div&gt;" style="rounded=1;whiteSpace=wrap;html=1;fontSize=12;glass=0;strokeWidth=1;shadow=0;" parent="uEcM1vriw_kn_yyQPSbz-3" vertex="1">
          <mxGeometry x="400" y="240" width="120" height="130" as="geometry" />
        </mxCell>
        <mxCell id="uEcM1vriw_kn_yyQPSbz-12" style="edgeStyle=orthogonalEdgeStyle;rounded=0;orthogonalLoop=1;jettySize=auto;html=1;exitX=0.5;exitY=1;exitDx=0;exitDy=0;entryX=0.5;entryY=0;entryDx=0;entryDy=0;" edge="1" parent="uEcM1vriw_kn_yyQPSbz-3" source="wOFYEOkOtfAxg9CZ5leM-1" target="wOFYEOkOtfAxg9CZ5leM-21">
          <mxGeometry relative="1" as="geometry" />
        </mxCell>
        <mxCell id="wOFYEOkOtfAxg9CZ5leM-1" value="&lt;b&gt;&lt;font style=&quot;font-size: 20px;&quot;&gt;wrapper&lt;/font&gt;&lt;/b&gt;&lt;div&gt;내부에서만 &lt;br&gt;상태 공유 및&lt;br&gt;리렌더링&lt;br&gt;&lt;br&gt;&lt;/div&gt;" style="rounded=0;whiteSpace=wrap;html=1;" parent="uEcM1vriw_kn_yyQPSbz-3" vertex="1">
          <mxGeometry width="160" height="90" as="geometry" />
        </mxCell>
        <mxCell id="wOFYEOkOtfAxg9CZ5leM-4" value="" style="rounded=0;whiteSpace=wrap;html=1;movable=1;resizable=1;rotatable=1;deletable=1;editable=1;locked=0;connectable=1;" parent="uEcM1vriw_kn_yyQPSbz-3" vertex="1">
          <mxGeometry x="20" y="120" width="210" height="320" as="geometry" />
        </mxCell>
        <mxCell id="wOFYEOkOtfAxg9CZ5leM-21" value="useState, useContext" style="rounded=0;whiteSpace=wrap;html=1;" parent="uEcM1vriw_kn_yyQPSbz-3" vertex="1">
          <mxGeometry x="20" y="110" width="130" height="50" as="geometry" />
        </mxCell>
        <mxCell id="wOFYEOkOtfAxg9CZ5leM-27" value="" style="edgeStyle=orthogonalEdgeStyle;rounded=0;orthogonalLoop=1;jettySize=auto;html=1;" parent="uEcM1vriw_kn_yyQPSbz-3" edge="1">
          <mxGeometry relative="1" as="geometry">
            <mxPoint x="84.83000000000001" y="160" as="sourcePoint" />
            <mxPoint x="84.83000000000001" y="260" as="targetPoint" />
          </mxGeometry>
        </mxCell>
        <mxCell id="wOFYEOkOtfAxg9CZ5leM-31" style="edgeStyle=orthogonalEdgeStyle;rounded=0;orthogonalLoop=1;jettySize=auto;html=1;exitX=1;exitY=0.75;exitDx=0;exitDy=0;entryX=0;entryY=0.25;entryDx=0;entryDy=0;" parent="uEcM1vriw_kn_yyQPSbz-3" source="wOFYEOkOtfAxg9CZ5leM-22" target="WIyWlLk6GJQsqaUBKTNV-7" edge="1">
          <mxGeometry relative="1" as="geometry" />
        </mxCell>
        <mxCell id="wOFYEOkOtfAxg9CZ5leM-22" value="&lt;b&gt;fileList&lt;/b&gt;&lt;div&gt;총 파일 데이터&lt;/div&gt;" style="rounded=0;whiteSpace=wrap;html=1;" parent="uEcM1vriw_kn_yyQPSbz-3" vertex="1">
          <mxGeometry x="25" y="180" width="120" height="60" as="geometry" />
        </mxCell>
        <mxCell id="wOFYEOkOtfAxg9CZ5leM-30" style="edgeStyle=orthogonalEdgeStyle;rounded=0;orthogonalLoop=1;jettySize=auto;html=1;exitX=1;exitY=0.5;exitDx=0;exitDy=0;entryX=0;entryY=0.5;entryDx=0;entryDy=0;" parent="uEcM1vriw_kn_yyQPSbz-3" source="wOFYEOkOtfAxg9CZ5leM-23" target="WIyWlLk6GJQsqaUBKTNV-7" edge="1">
          <mxGeometry relative="1" as="geometry" />
        </mxCell>
        <mxCell id="wOFYEOkOtfAxg9CZ5leM-23" value="&lt;b&gt;fileListwithMetadata&lt;/b&gt;&lt;br&gt;fileList 데이터를 확장자 검사 작업한 데이터" style="rounded=0;whiteSpace=wrap;html=1;" parent="uEcM1vriw_kn_yyQPSbz-3" vertex="1">
          <mxGeometry x="25" y="260" width="120" height="75" as="geometry" />
        </mxCell>
        <mxCell id="wOFYEOkOtfAxg9CZ5leM-32" style="edgeStyle=orthogonalEdgeStyle;rounded=0;orthogonalLoop=1;jettySize=auto;html=1;exitX=1;exitY=0.5;exitDx=0;exitDy=0;entryX=0;entryY=0.75;entryDx=0;entryDy=0;" parent="uEcM1vriw_kn_yyQPSbz-3" source="wOFYEOkOtfAxg9CZ5leM-24" target="WIyWlLk6GJQsqaUBKTNV-7" edge="1">
          <mxGeometry relative="1" as="geometry" />
        </mxCell>
        <mxCell id="wOFYEOkOtfAxg9CZ5leM-24" value="&lt;b&gt;&lt;font style=&quot;font-size: 15px;&quot;&gt;setter함수&lt;/font&gt;&lt;/b&gt;&lt;div&gt;updateFileList&lt;br&gt;deleteFileList&lt;/div&gt;" style="rounded=0;whiteSpace=wrap;html=1;" parent="uEcM1vriw_kn_yyQPSbz-3" vertex="1">
          <mxGeometry x="25" y="350" width="120" height="60" as="geometry" />
        </mxCell>
        <mxCell id="wOFYEOkOtfAxg9CZ5leM-26" style="edgeStyle=orthogonalEdgeStyle;rounded=0;orthogonalLoop=1;jettySize=auto;html=1;exitX=0;exitY=0.5;exitDx=0;exitDy=0;entryX=1;entryY=0.25;entryDx=0;entryDy=0;" parent="uEcM1vriw_kn_yyQPSbz-3" source="WIyWlLk6GJQsqaUBKTNV-3" target="wOFYEOkOtfAxg9CZ5leM-22" edge="1">
          <mxGeometry relative="1" as="geometry" />
        </mxCell>
        <mxCell id="uEcM1vriw_kn_yyQPSbz-6" style="edgeStyle=orthogonalEdgeStyle;rounded=0;orthogonalLoop=1;jettySize=auto;html=1;exitX=0.995;exitY=0.403;exitDx=0;exitDy=0;entryX=0;entryY=0.25;entryDx=0;entryDy=0;exitPerimeter=0;" edge="1" parent="WIyWlLk6GJQsqaUBKTNV-1">
          <mxGeometry relative="1" as="geometry">
            <mxPoint x="304.2" y="557.27" as="sourcePoint" />
            <mxPoint x="470" y="336" as="targetPoint" />
            <Array as="points">
              <mxPoint x="304" y="561" />
              <mxPoint x="330" y="561" />
              <mxPoint x="330" y="336" />
            </Array>
          </mxGeometry>
        </mxCell>
        <mxCell id="uEcM1vriw_kn_yyQPSbz-7" value="state, dispatcher 전달" style="edgeLabel;html=1;align=center;verticalAlign=middle;resizable=0;points=[];" vertex="1" connectable="0" parent="uEcM1vriw_kn_yyQPSbz-6">
          <mxGeometry x="0.6832" y="-3" relative="1" as="geometry">
            <mxPoint x="-35" as="offset" />
          </mxGeometry>
        </mxCell>
      </root>
    </mxGraphModel>
  </diagram>
</mxfile>
